<svg xmlns="http://www.w3.org/2000/svg" xmlns:xlink="http://www.w3.org/1999/xlink" width="1080" zoomAndPan="magnify" viewBox="0 0 810 1439.999935" height="1920" preserveAspectRatio="xMidYMid meet" version="1.0"><defs><clipPath id="id1"><path d="M 309 368.527344 L 756.277344 368.527344 L 756.277344 867 L 309 867 Z M 309 368.527344 " clip-rule="nonzero"/></clipPath><clipPath id="id2"><path d="M 53.527344 380 L 725 380 L 725 1071.277344 L 53.527344 1071.277344 Z M 53.527344 380 " clip-rule="nonzero"/></clipPath></defs><path fill="rgb(95.689392%, 96.469116%, 98.81897%)" d="M 127.101562 719.902344 C 127.101562 877.902344 255.644531 1006.449219 413.644531 1006.449219 C 517.804688 1006.449219 612.375 949.917969 662.652344 861.648438 C 652.042969 859.945312 641.558594 857.832031 631.21875 855.339844 C 585.886719 927.898438 505.324219 976.289062 413.644531 976.289062 C 312.699219 976.289062 220.804688 916.734375 179.542969 824.570312 L 204.898438 813.21875 C 241.695312 895.398438 323.628906 948.507812 413.644531 948.507812 C 492.457031 948.507812 562.039062 908.402344 603.15625 847.550781 C 557.734375 833.203125 515.652344 811.359375 478.359375 783.460938 L 477.203125 783.460938 L 477.203125 890.433594 C 477.203125 898.734375 470.398438 905.53125 462.09375 905.53125 L 365.195312 905.53125 C 356.894531 905.53125 350.089844 898.734375 350.089844 890.433594 L 350.089844 783.460938 L 243.125 783.460938 C 234.8125 783.460938 228.019531 776.65625 228.019531 768.351562 L 228.019531 671.457031 C 228.019531 663.152344 234.8125 656.347656 243.125 656.347656 L 350.089844 656.347656 L 350.089844 626.941406 C 333.308594 591.660156 321.304688 553.679688 314.898438 513.816406 C 266.964844 536.796875 227.453125 576.222656 204.898438 626.589844 L 179.542969 615.238281 C 206.136719 555.839844 253.757812 510.007812 311.277344 484.921875 C 310.324219 474.371094 309.757812 463.703125 309.601562 452.945312 C 202.894531 494.667969 127.101562 598.59375 127.101562 719.902344 " fill-opacity="1" fill-rule="nonzero"/><path fill="rgb(89.408875%, 89.408875%, 89.408875%)" d="M 642.25 719.902344 C 642.25 593.851562 539.695312 491.300781 413.644531 491.300781 C 400.601562 491.300781 387.730469 492.449219 375.136719 494.609375 C 354.089844 498.210938 333.84375 504.734375 314.898438 513.816406 C 321.304688 553.679688 333.308594 591.660156 350.089844 626.941406 L 350.089844 549.375 C 350.089844 541.070312 356.894531 534.277344 365.195312 534.277344 L 462.09375 534.277344 C 470.398438 534.277344 477.203125 541.070312 477.203125 549.375 L 477.203125 656.347656 L 584.171875 656.347656 C 592.476562 656.347656 599.273438 663.152344 599.273438 671.457031 L 599.273438 768.351562 C 599.273438 776.65625 592.476562 783.460938 584.171875 783.460938 L 478.359375 783.460938 C 515.652344 811.359375 557.734375 833.203125 603.15625 847.550781 C 603.699219 846.742188 604.253906 845.945312 604.800781 845.136719 C 628.457031 809.140625 642.25 766.105469 642.25 719.902344 " fill-opacity="1" fill-rule="nonzero"/><g clip-path="url(#id1)"><path fill="rgb(89.408875%, 89.408875%, 89.408875%)" d="M 404.902344 368.527344 C 373.734375 368.527344 343.519531 372.609375 314.742188 380.230469 C 312.515625 394.296875 310.976562 408.597656 310.179688 423.101562 C 341.164062 412.277344 374.328125 406.164062 408.828125 405.636719 C 410.433594 405.617188 412.039062 405.578125 413.644531 405.578125 C 547.222656 405.578125 666.507812 490.277344 710.488281 616.339844 L 684.253906 625.488281 C 644.167969 510.574219 535.414062 433.359375 413.644531 433.359375 C 407.191406 433.359375 400.785156 433.59375 394.4375 434.023438 C 364.699219 436 336.1875 442.550781 309.601562 452.945312 C 309.757812 463.703125 310.324219 474.371094 311.277344 484.921875 C 333.765625 475.113281 357.769531 468.472656 382.621094 465.433594 C 392.832031 464.1875 403.191406 463.519531 413.644531 463.519531 C 555.019531 463.519531 670.03125 578.53125 670.03125 719.902344 C 670.03125 767.3125 657.085938 811.738281 634.570312 849.867188 C 633.480469 851.707031 632.347656 853.527344 631.21875 855.339844 C 641.558594 857.832031 652.042969 859.945312 662.652344 861.648438 C 664.550781 858.328125 666.390625 854.980469 668.164062 851.570312 C 674.324219 839.65625 679.746094 827.234375 684.253906 814.316406 L 710.488281 823.46875 C 707.351562 832.445312 703.800781 841.195312 699.925781 849.730469 C 697.523438 855.039062 694.933594 860.214844 692.265625 865.335938 C 702.769531 866.269531 713.378906 866.824219 724.085938 866.972656 C 744.734375 822.234375 756.277344 772.410156 756.277344 719.902344 C 756.277344 525.847656 598.960938 368.527344 404.902344 368.527344 " fill-opacity="1" fill-rule="nonzero"/></g><g clip-path="url(#id2)"><path fill="rgb(95.689392%, 96.469116%, 98.81897%)" d="M 413.644531 1034.230469 C 240.324219 1034.230469 99.320312 893.226562 99.320312 719.902344 C 99.320312 582.8125 187.535156 465.972656 310.179688 423.101562 C 310.976562 408.597656 312.515625 394.296875 314.742188 380.230469 C 164.375 420.035156 53.527344 557.015625 53.527344 719.902344 C 53.527344 913.960938 210.847656 1071.277344 404.902344 1071.277344 C 546.453125 1071.277344 668.425781 987.570312 724.085938 866.972656 C 713.378906 866.824219 702.769531 866.269531 692.265625 865.335938 C 638.707031 967.898438 531.800781 1034.230469 413.644531 1034.230469 " fill-opacity="1" fill-rule="nonzero"/></g></svg>