<svg xmlns="http://www.w3.org/2000/svg" xmlns:xlink="http://www.w3.org/1999/xlink" width="500" zoomAndPan="magnify" viewBox="0 0 375 374.999991" height="500" preserveAspectRatio="xMidYMid meet" version="1.0"><defs><clipPath id="id1"><path d="M 133 142.265625 L 317.683594 142.265625 L 317.683594 349 L 133 349 Z M 133 142.265625 " clip-rule="nonzero"/></clipPath><clipPath id="id2"><path d="M 57.136719 142.265625 L 210 142.265625 L 210 366.335938 L 57.136719 366.335938 Z M 57.136719 142.265625 " clip-rule="nonzero"/></clipPath></defs><g clip-path="url(#id1)"><path fill="rgb(20.388794%, 20.388794%, 20.388794%)" d="M 257.351562 142.320312 C 241.367188 142.328125 226.035156 148.65625 214.722656 159.925781 L 187.410156 187.113281 L 164.183594 210.269531 C 159.058594 215.054688 158.789062 223.074219 163.585938 228.1875 C 168.382812 233.300781 176.425781 233.566406 181.554688 228.785156 C 181.761719 228.59375 181.960938 228.394531 182.15625 228.1875 L 137.234375 272.980469 C 132.105469 277.761719 131.835938 285.785156 136.632812 290.894531 C 141.429688 296.007812 149.476562 296.277344 154.601562 291.496094 C 154.808594 291.300781 155.007812 291.101562 155.199219 290.894531 C 150.074219 295.679688 149.804688 303.703125 154.601562 308.8125 C 159.398438 313.925781 167.441406 314.195312 172.570312 309.410156 C 172.777344 309.21875 172.976562 309.019531 173.167969 308.8125 C 168.042969 313.597656 167.773438 321.617188 172.570312 326.730469 C 177.367188 331.84375 185.410156 332.109375 190.539062 327.328125 C 190.746094 327.136719 190.945312 326.9375 191.136719 326.730469 C 186.011719 331.515625 185.742188 339.535156 190.539062 344.648438 C 195.335938 349.761719 203.382812 350.027344 208.507812 345.246094 C 208.714844 345.050781 208.914062 344.851562 209.105469 344.648438 L 209.871094 343.886719 L 254.792969 299.09375 L 259.285156 294.613281 L 300.027344 253.988281 C 311.339844 242.695312 317.6875 227.390625 317.683594 211.433594 L 317.683594 202.476562 C 317.660156 169.261719 290.664062 142.34375 257.351562 142.320312 Z M 257.351562 142.320312 " fill-opacity="1" fill-rule="nonzero"/></g><g clip-path="url(#id2)"><path fill="rgb(98.039246%, 39.608765%, 34.899902%)" d="M 187.410156 335.6875 C 187.414062 332.328125 188.753906 329.105469 191.136719 326.730469 C 186.339844 331.84375 178.296875 332.109375 173.167969 327.328125 C 168.042969 322.546875 167.773438 314.523438 172.570312 309.410156 C 172.765625 309.203125 172.964844 309.003906 173.167969 308.8125 C 168.371094 313.925781 160.328125 314.195312 155.199219 309.410156 C 150.074219 304.628906 149.804688 296.605469 154.601562 291.496094 C 154.792969 291.285156 154.996094 291.089844 155.199219 290.894531 C 150.40625 296.007812 142.359375 296.277344 137.234375 291.496094 C 132.105469 286.710938 131.835938 278.6875 136.632812 273.578125 C 136.828125 273.371094 137.027344 273.171875 137.234375 272.980469 L 182.15625 228.1875 C 177.355469 233.300781 169.3125 233.566406 164.183594 228.785156 C 159.058594 224.003906 158.789062 215.980469 163.585938 210.867188 C 163.777344 210.660156 163.980469 210.460938 164.183594 210.269531 L 187.410156 187.113281 L 160.144531 159.925781 C 148.832031 148.65625 133.5 142.328125 117.511719 142.320312 C 84.183594 142.320312 57.160156 169.246094 57.136719 202.476562 L 57.136719 211.433594 C 57.132812 227.390625 63.484375 242.695312 74.789062 253.988281 L 187.410156 366.285156 L 209.105469 344.648438 C 204.140625 349.597656 196.089844 349.589844 191.128906 344.636719 C 188.75 342.265625 187.414062 339.046875 187.410156 335.6875 Z M 187.410156 335.6875 " fill-opacity="1" fill-rule="nonzero"/></g><path fill="rgb(100%, 8.628845%, 8.628845%)" d="M 289.085938 63.703125 C 233 7.859375 141.753906 7.859375 85.671875 63.703125 C 81.511719 67.847656 81.511719 74.5625 85.671875 78.710938 C 89.832031 82.851562 96.574219 82.855469 100.738281 78.710938 C 148.46875 31.183594 226.09375 31.136719 273.875 78.570312 C 273.949219 78.644531 274.023438 78.722656 274.09375 78.789062 C 276.171875 80.863281 278.898438 81.898438 281.625 81.898438 C 284.351562 81.898438 287.078125 80.863281 289.15625 78.789062 C 293.21875 74.746094 293.316406 68.246094 289.445312 64.082031 C 289.328125 63.953125 289.207031 63.824219 289.085938 63.703125 " fill-opacity="1" fill-rule="nonzero"/><path fill="rgb(100%, 8.628845%, 8.628845%)" d="M 243.558594 104.632812 C 245.597656 106.480469 248.164062 107.390625 250.71875 107.390625 C 253.617188 107.390625 256.503906 106.222656 258.609375 103.917969 C 262.4375 99.722656 262.261719 93.304688 258.300781 89.324219 L 258.179688 89.203125 C 239.738281 70.828125 215.210938 60.710938 189.125 60.710938 C 163.035156 60.714844 138.511719 70.832031 120.0625 89.207031 C 115.902344 93.347656 115.902344 100.066406 120.066406 104.210938 C 124.226562 108.355469 130.96875 108.351562 135.132812 104.210938 C 149.554688 89.847656 168.726562 81.9375 189.125 81.933594 C 209.488281 81.933594 228.632812 89.816406 243.046875 104.136719 C 243.210938 104.308594 243.394531 104.484375 243.558594 104.632812 " fill-opacity="1" fill-rule="nonzero"/><path fill="rgb(100%, 8.628845%, 8.628845%)" d="M 144.6875 122.480469 C 140.527344 126.621094 140.527344 133.339844 144.6875 137.484375 C 148.847656 141.628906 155.589844 141.628906 159.753906 137.484375 C 174.945312 122.359375 199.628906 122.316406 214.871094 137.359375 C 214.941406 137.429688 215.011719 137.5 215.074219 137.566406 C 217.15625 139.640625 219.882812 140.675781 222.609375 140.675781 C 225.335938 140.675781 228.0625 139.640625 230.144531 137.566406 C 234.179688 133.546875 234.300781 127.105469 230.503906 122.9375 C 230.363281 122.785156 230.214844 122.628906 230.070312 122.480469 C 206.527344 99.039062 168.226562 99.039062 144.6875 122.480469 " fill-opacity="1" fill-rule="nonzero"/></svg>